<?xml version="1.0"?>
<svg xmlns="http://www.w3.org/2000/svg" id="Layer_1" data-name="Layer 1" viewBox="0 0 512 512" width="512" height="512"><title>Mobile Phone</title><path d="M176,477H336a46.052,46.052,0,0,0,46-46V81a46.052,46.052,0,0,0-46-46H176a46.052,46.052,0,0,0-46,46V431A46.052,46.052,0,0,0,176,477Zm0-430H336a34.038,34.038,0,0,1,34,34V95H356a6,6,0,0,0,0,12h14V393H142V107H305a6,6,0,0,0,0-12H142V81A34.038,34.038,0,0,1,176,47ZM142,405H370v26a34.038,34.038,0,0,1-34,34H176a34.038,34.038,0,0,1-34-34Z"/><path d="M324.7,107H335.81a6,6,0,0,0,0-12H324.7a6,6,0,0,0,0,12Z"/><path d="M256,456a21,21,0,1,0-21-21A21.024,21.024,0,0,0,256,456Zm0-30a9,9,0,1,1-9,9A9.01,9.01,0,0,1,256,426Z"/></svg>
